Sinopsis:
Rose (Radha Mitchell), desesperada por encontrar una cura para la misteriosa enfermedad de su hija Sharon, rehúsa ingresar a la niña en una institución psiquiátrica a pesar de las recomendaciones de los médicos, y decide huir a Silent Hill, un pueblo del que su hija habla constantemente en sueños. A pesar de que su marido Christopher (Sean Bean) se opone al viaje, Rose está convencida de que la respuesta se encuentra en ese misterioso lugar. Al aproximarse al pueblo desierto, una misteriosa figura se alza en medio de la carretera. Rose, por no atropellarla, tiene un accidente. Cuando vuelve en sí, Sharon ha desaparecido. A partir de ese momento, acompañada por una agente de policía (Laurie Holden), empieza una búsqueda desesperada en Silent Hill para encontrar a su hija. Las dos mujeres no tardan en darse cuenta de que el pueblo, que quedó desierto después de ser devastado por unos terribles incendios, no se parece a ningún otro. La niebla es parte íntegra de un paisaje habitado por extraños seres. Además, el lugar se ve invadido periódicamente por una oscuridad viviente que cambia todo lo que toca. Mientras Rose busca a su hija, empieza a conocer la historia de Silent Hill, su pasado violento y puritano, y los orígenes de la maldición que sufre, y entiende que su hija forma parte de algo mucho mayor y aterrador.

Información técnica:
General
Unique ID                        : 178933931943057517744790180250214879736 (0x869D6BF8700C1540A0ECD435875651F8)
Format                           : Matroska
File size                        : 11.4 GiB
Duration                         : 2h 5mn
Overall bit rate                 : 13.0 Mbps
Encoded date                     : UTC 2012-02-14 09:44:54
Writing application              : mkvmerge v5.1.0 (\\\\\\\\\\\\\\\\\\\\\\\\\\\\\\\\\\\\\\\\\\\\\\\\\\\\\\\\\\\\\\\'And so it goes\\\\\\\\\\\\\\\\\\\\\\\\\\\\\\\\\\\\\\\\\\\\\\\\\\\\\\\\\\\\\\\') built on Nov 28 2011 23:58:28
Writing library                  : libebml v1.2.3 + libmatroska v1.3.0
Cover                            : Yes / Yes

Video
ID                               : 1
Format                           : AVC
Format/Info                      : Advanced Video Codec
Format profile                   : High@L4.1
Format settings, CABAC           : Yes
Format settings, ReFrames        : 4 frames
Muxing mode                      : Header stripping
Codec ID                         : V_MPEG4/ISO/AVC
Duration                         : 2h 5mn
Bit rate                         : 10.8 Mbps
Width                            : 1 920 pixels
Height                           : 816 pixels
Display aspect ratio             : 2.35:1
Frame rate                       : 23.976 fps
Color space                      : YUV
Chroma subsampling               : 4:2:0
Bit depth                        : 8 bits
Scan type                        : Progressive
Bits/(Pixel*Frame)               : 0.287
Stream size                      : 9.44 GiB (83%)
Title                            : Video
Writing library                  : x264 core 67 r1125M 10d6ef0
Encoding settings                : cabac=1 / ref=4 / deblock=1:-2:-2 / analyse=0x3:0x113 / me=umh / subme=7 / psy_rd=1.1:0.0 / mixed_ref=1 / me_range=24 / chroma_me=1 / trellis=2 / 8x8dct=1 / cqm=0 / deadzone=21,11 / chroma_qp_offset=-2 / threads=6 / nr=0 / decimate=0 / mbaff=0 / bframes=3 / b_pyramid=0 / b_adapt=1 / b_bias=0 / direct=3 / wpredb=1 / keyint=250 / keyint_min=25 / scenecut=40 / rc=crf / crf=21.0 / qcomp=0.60 / qpmin=10 / qpmax=51 / qpstep=4 / vbv_maxrate=38000 / vbv_bufsize=30000 / ip_ratio=1.40 / pb_ratio=1.30 / aq=1:1.00
Language                         : English

Audio #1
ID                               : 2
Format                           : AC-3
Format/Info                      : Audio Coding 3
Mode extension                   : CM (complete main)
Muxing mode                      : Header stripping
Codec ID                         : A_AC3
Duration                         : 2h 5mn
Bit rate mode                    : Constant
Bit rate                         : 448 Kbps
Channel(s)                       : 6 channels
Channel positions                : Front: L C R, Side: L R, LFE
Sampling rate                    : 48.0 KHz
Bit depth                        : 16 bits
Compression mode                 : Lossy
Delay relative to video          : 20ms
Stream size                      : 402 MiB (3%)
Title                            : Audio
Language                         : Spanish

Audio #2
ID                               : 3
Format                           : DTS
Format/Info                      : Digital Theater Systems
Muxing mode                      : Header stripping
Codec ID                         : A_DTS
Duration                         : 2h 5mn
Bit rate mode                    : Constant
Bit rate                         : 1 510 Kbps
Channel(s)                       : 6 channels
Channel positions                : Front: L C R, Side: L R, LFE
Sampling rate                    : 48.0 KHz
Bit depth                        : 24 bits
Compression mode                 : Lossy
Stream size                      : 1.32 GiB (12%)
Title                            : Audio
Language                         : English

Text #1
ID                               : 4
Format                           : ASS
Codec ID                         : S_TEXT/ASS
Codec ID/Info                    : Advanced Sub Station Alpha
Compression mode                 : Lossless
Language                         : Spanish

Text #2
ID                               : 5
Format                           : UTF-8
Codec ID                         : S_TEXT/UTF8
Codec ID/Info                    : UTF-8 Plain Text
Language                         : English
